HIERARCHY
ROOT Hips
{
	OFFSET 0.000000 0.000000 0.000000
	CHANNELS 6 Xposition Yposition Zposition Zrotation Yrotation Xrotation 
	JOINT LowerBack
	{
		OFFSET 0.000000 0.000000 0.000000
		CHANNELS 3 Zrotation Yrotation Xrotation
		JOINT Spine
		{
			OFFSET 0.028270 2.035590 -0.193380
			CHANNELS 3 Zrotation Yrotation Xrotation
			JOINT Spine1
			{
				OFFSET 0.056720 2.048850 -0.042750
				CHANNELS 3 Zrotation Yrotation Xrotation
				JOINT Neck
				{
					OFFSET 0.000000 0.000000 0.000000
					CHANNELS 3 Zrotation Yrotation Xrotation
					JOINT Neck1
					{
						OFFSET -0.054170 1.746240 0.172020
						CHANNELS 3 Zrotation Yrotation Xrotation
						JOINT Head
						{
							OFFSET 0.104070 1.761360 -0.123970
							CHANNELS 3 Zrotation Yrotation Xrotation
							End Site
							{
								OFFSET 0.000000 0.000000 0.000000
							}
						}
					}
				}
				JOINT LeftShoulder
				{
					OFFSET 0.000000 0.000000 0.000000
					CHANNELS 3 Zrotation Yrotation Xrotation
					JOINT LeftArm
					{
						OFFSET 3.362410 1.200890 -0.311210
						CHANNELS 3 Zrotation Yrotation Xrotation
						JOINT LeftForeArm
						{
							OFFSET 4.983000 -0.000000 -0.000000
							CHANNELS 3 Zrotation Yrotation Xrotation
							JOINT LeftHand
							{
								OFFSET 3.483560 -0.000000 -0.000000
								CHANNELS 3 Zrotation Yrotation Xrotation
								JOINT LeftFingerBase
								{
									OFFSET 0.000000 0.000000 0.000000
									CHANNELS 3 Zrotation Yrotation Xrotation
									JOINT LeftHandIndex1
									{
										OFFSET 0.715260 -0.000000 -0.000000
										CHANNELS 3 Zrotation Yrotation Xrotation
										End Site
										{
											OFFSET 0.000000 0.000000 0.000000
										}
									}
								}
								JOINT LThumb
								{
									OFFSET 0.000000 0.000000 0.000000
									CHANNELS 3 Zrotation Yrotation Xrotation
									End Site
									{
										OFFSET 0.000000 0.000000 0.000000
									}
								}
							}
						}
					}
				}
				JOINT RightShoulder
				{
					OFFSET 0.000000 0.000000 0.000000
					CHANNELS 3 Zrotation Yrotation Xrotation
					JOINT RightArm
					{
						OFFSET -3.136600 1.374050 -0.404650
						CHANNELS 3 Zrotation Yrotation Xrotation
						JOINT RightForeArm
						{
							OFFSET -5.241900 -0.000000 -0.000000
							CHANNELS 3 Zrotation Yrotation Xrotation
							JOINT RightHand
							{
								OFFSET -3.444170 -0.000000 -0.000000
								CHANNELS 3 Zrotation Yrotation Xrotation
								JOINT RightFingerBase
								{
									OFFSET 0.000000 0.000000 0.000000
									CHANNELS 3 Zrotation Yrotation Xrotation
									JOINT RightHandIndex1
									{
										OFFSET -0.622530 -0.000000 -0.000000
										CHANNELS 3 Zrotation Yrotation Xrotation
										End Site
										{
											OFFSET 0.000000 0.000000 0.000000
										}
									}
								}
								JOINT RThumb
								{
									OFFSET 0.000000 0.000000 0.000000
									CHANNELS 3 Zrotation Yrotation Xrotation
									End Site
									{
										OFFSET 0.000000 0.000000 0.000000
									}
								}
							}
						}
					}
				}
			}
		}
	}
}
}
MOTION
Frames: 12
Frame Time: 0.008333
7.247751 16.988619 0.841664 18.349892 62.042960 34.804654 4.590348 -4.165055 -5.755672 0.304882 -4.755891 -3.778880 -7.362430 -4.682866 0.469980 6.203601 -14.623368 -8.545241 -4.473223 -0.332375 -0.259354 0.000000 0.000000 0.000000 3.022844 6.040975 0.963993 -34.000716 -13.042502 3.056871 -179.388190 -74.643560 179.907037 11.185902 2.000244 0.159906 -0.354386 0.460487 -0.000000 0.000000 0.000000 0.000000 0.000000 0.000000 0.000000 14.464811 -10.804595 -0.755138 74.893075 2.499663 19.785161 -0.054110 86.772622 0.007249 0.765363 2.878490 0.023503 -0.011287 -0.361018 0.000000 0.000000 0.000000 0.000000 0.000000 0.000000 0.000000 
7.442108 16.947951 0.932984 18.520483 61.574885 35.136881 4.872338 -4.087550 -6.082044 0.368363 -4.717285 -3.848169 -7.332253 -4.646893 0.473785 5.838262 -14.558047 -8.731132 -4.533499 -0.335724 -0.317122 0.000000 0.000000 0.000000 2.462751 6.512012 0.992933 -34.015162 -12.782947 2.808669 -179.345287 -74.357048 179.906550 11.365092 1.678183 0.128991 -0.364937 0.466095 0.000000 0.000000 0.000000 0.000000 0.000000 0.000000 0.000000 14.442335 -10.608511 -0.766998 74.999256 1.980665 18.977034 -0.020465 86.034634 0.004652 0.267625 2.714977 0.008742 -0.001708 -0.354627 0.000000 0.000000 0.000000 0.000000 0.000000 0.000000 0.000000 
7.634139 16.911615 1.023188 18.585719 61.129551 35.324294 5.162171 -3.997022 -6.330492 0.433822 -4.662724 -3.906933 -7.286882 -4.595592 0.462501 5.506779 -14.452583 -8.896609 -4.595875 -0.339320 -0.370486 0.000000 0.000000 0.000000 1.954929 6.958545 1.011651 -34.351005 -12.498978 2.669546 -179.305126 -74.169258 179.906242 11.546945 1.337221 0.095078 -0.374906 0.471834 -0.000000 0.000000 0.000000 0.000000 0.000000 0.000000 0.000000 14.452341 -10.374214 -0.768079 75.021407 1.567348 18.221181 0.015974 85.234806 0.001535 -0.339572 2.556838 -0.007317 0.009807 -0.348467 0.000000 0.000000 0.000000 0.000000 0.000000 0.000000 0.000000 
7.822234 16.879962 1.112292 18.538535 60.711800 35.329847 5.447522 -3.899537 -6.465214 0.498445 -4.595263 -3.948330 -7.226211 -4.531998 0.432818 5.220939 -14.299800 -9.032809 -4.659482 -0.343117 -0.416858 0.000000 0.000000 0.000000 1.537477 7.360215 1.019844 -35.029248 -12.161433 2.642265 -179.270514 -74.087175 179.906148 11.721665 1.002664 0.060651 -0.383612 0.476995 -0.000000 0.000000 0.000000 0.000000 0.000000 0.000000 0.000000 14.500204 -10.099736 -0.758167 74.969952 1.272305 17.532015 0.055406 84.365669 -0.002038 -1.043711 2.409128 -0.023978 0.022779 -0.342586 0.000000 0.000000 0.000000 0.000000 0.000000 0.000000 0.000000 
8.005124 16.853259 1.200841 18.385901 60.323160 35.149889 5.710941 -3.801478 -6.474225 0.558763 -4.518954 -3.968811 -7.151419 -4.460079 0.387300 4.993712 -14.105119 -9.136903 -4.722703 -0.346984 -0.455023 0.000000 0.000000 0.000000 1.233445 7.708450 1.017088 -36.040296 -11.751566 2.726355 -179.244268 -74.119913 179.906323 11.876590 0.698983 0.028496 -0.390337 0.480828 0.000000 0.000000 0.000000 0.000000 0.000000 0.000000 0.000000 14.594953 -9.796112 -0.738204 74.854194 1.114157 16.938445 0.097865 83.419081 -0.005966 -1.827296 2.274300 -0.040844 0.036805 -0.336931 0.000000 0.000000 0.000000 0.000000 0.000000 0.000000 0.000000 
8.182020 16.831733 1.289490 18.124188 59.962848 34.787997 5.944089 -3.706656 -6.363873 0.613013 -4.437115 -3.968573 -7.065824 -4.383041 0.329302 4.835060 -13.874569 -9.207483 -4.784195 -0.350827 -0.484030 0.000000 0.000000 0.000000 1.048851 7.998769 1.004263 -37.348124 -11.252751 2.914847 -179.228698 -74.271710 179.906845 11.995925 0.448001 0.001399 -0.394397 0.482631 -0.000000 0.000000 0.000000 0.000000 0.000000 0.000000 0.000000 14.744095 -9.472767 -0.709329 74.683132 1.103581 16.466376 0.142982 82.394133 -0.010096 -2.663817 2.151153 -0.057116 0.051399 -0.331403 0.000000 0.000000 0.000000 0.000000 0.000000 0.000000 0.000000 
8.352391 16.815341 1.379152 17.764123 59.626853 34.271587 6.134446 -3.618374 -6.154079 0.658421 -4.353035 -3.950480 -6.974366 -4.304046 0.262488 4.752409 -13.614433 -9.243736 -4.842645 -0.354581 -0.503003 0.000000 0.000000 0.000000 0.979402 8.227847 0.983125 -38.891888 -10.648812 3.194088 -179.225528 -74.544175 179.907797 12.064566 0.268000 -0.018048 -0.395213 0.481765 -0.000000 0.000000 0.000000 0.000000 0.000000 0.000000 0.000000 14.953503 -9.137783 -0.673110 74.468868 1.241015 16.137125 0.190109 81.298296 -0.014236 -3.518355 2.035896 -0.072193 0.065984 -0.325893 0.000000 0.000000 0.000000 0.000000 0.000000 0.000000 0.000000 
8.516077 16.803785 1.470915 17.325273 59.309308 33.643041 6.270014 -3.539283 -5.874033 0.692317 -4.270007 -3.918607 -6.882479 -4.226194 0.193120 4.749305 -13.338069 -9.249475 -4.896102 -0.358104 -0.512383 0.000000 0.000000 0.000000 1.008352 8.401683 0.955739 -40.592651 -9.939026 3.547702 -179.235563 -74.938971 179.909257 12.068019 0.174782 -0.027752 -0.392392 0.477713 0.000000 0.000000 0.000000 0.000000 0.000000 0.000000 0.000000 15.224804 -8.805079 -0.631691 74.226507 1.526444 15.974462 0.238678 80.143273 -0.018176 -4.352837 1.923529 -0.085179 0.080037 -0.320295 0.000000 0.000000 0.000000 0.000000 0.000000 0.000000 0.000000 
8.673106 16.796538 1.565854 16.846924 59.002931 32.960763 6.332778 -3.472620 -5.554409 0.710670 -4.191572 -3.877414 -6.796003 -4.152843 0.126621 4.825295 -13.057460 -9.228745 -4.942842 -0.361282 -0.512784 0.000000 0.000000 0.000000 1.114171 8.525992 0.925097 -42.361303 -9.126683 3.957147 -179.258210 -75.452511 179.911291 11.994623 0.180084 -0.026217 -0.385802 0.470101 -0.000000 0.000000 0.000000 0.000000 0.000000 0.000000 0.000000 15.556061 -8.485950 -0.587400 73.974602 1.950491 15.993821 0.288085 78.949041 -0.021710 -5.126212 1.809487 -0.095071 0.093014 -0.314573 0.000000 0.000000 0.000000 0.000000 0.000000 0.000000 0.000000 
8.823767 16.792920 1.665018 16.378602 58.701309 32.292025 6.304225 -3.421421 -5.227216 0.709450 -4.121155 -3.831473 -6.720107 -4.087272 0.068944 4.975635 -12.787395 -9.187702 -4.981173 -0.363994 -0.505557 0.000000 0.000000 0.000000 1.270451 8.609067 0.894408 -44.108579 -8.223415 4.405802 -179.291612 -76.078633 179.913964 11.836514 0.291191 -0.012840 -0.375608 0.458714 0.000000 0.000000 0.000000 0.000000 0.000000 0.000000 0.000000 15.941315 -8.193616 -0.542690 73.732803 2.501601 16.208315 0.337916 77.739429 -0.024655 -5.799626 1.691238 -0.101369 0.104470 -0.308754 0.000000 0.000000 0.000000 0.000000 0.000000 0.000000 0.000000 
8.968580 16.792395 1.768960 15.958710 58.401012 31.686054 6.176907 -3.387264 -4.915471 0.686877 -4.061163 -3.784117 -6.658733 -4.031777 0.024261 5.189077 -12.536013 -9.132094 -5.009755 -0.366123 -0.492274 0.000000 0.000000 0.000000 1.445185 8.664363 0.868260 -45.754780 -7.254667 4.882519 -179.332867 -76.811435 179.917287 11.589586 0.509730 0.011786 -0.362307 0.443592 -0.000000 0.000000 0.000000 0.000000 0.000000 0.000000 0.000000 16.366591 -7.933553 -0.500099 73.521677 3.161039 16.617031 0.387693 76.543036 -0.026856 -6.335146 1.569462 -0.103772 0.113939 -0.302951 0.000000 0.000000 0.000000 0.000000 0.000000 0.000000 0.000000 
9.108357 16.794487 1.878073 15.628442 58.099152 31.196514 5.944124 -3.371039 -4.644617 0.641714 -4.013399 -3.739308 -6.613838 -3.988167 -0.003792 5.451660 -12.312449 -9.068256 -5.027651 -0.367594 -0.474750 0.000000 0.000000 0.000000 1.608756 8.703147 0.850002 -47.236837 -6.242872 5.382136 -179.378555 -77.636733 179.921252 11.255393 0.828850 0.045674 -0.346626 0.425008 -0.000000 0.000000 0.000000 0.000000 0.000000 0.000000 0.000000 16.815521 -7.711438 -0.461714 73.357158 3.908031 17.216822 0.437006 75.390220 -0.028215 -6.704544 1.447892 -0.102378 0.121148 -0.297331 0.000000 0.000000 0.000000 0.000000 0.000000 0.000000 0.000000 
